<?xml version="1.0" standalone="no"?>
<!DOCTYPE svg PUBLIC "-//W3C//DTD SVG 20010904//EN"
 "http://www.w3.org/TR/2001/REC-SVG-20010904/DTD/svg10.dtd">
<svg version="1.0" xmlns="http://www.w3.org/2000/svg"
 width="512.000000pt" height="512.000000pt" viewBox="0 0 512.000000 512.000000"
 preserveAspectRatio="xMidYMid meet">

<g transform="translate(0.000000,512.000000) scale(0.100000,-0.100000)"
fill="#000000" stroke="none">
<path d="M2341 5109 c-319 -28 -632 -117 -920 -260 -653 -324 -1136 -914
-1331 -1624 -211 -773 -35 -1622 470 -2260 219 -276 538 -533 861 -694 720
-358 1558 -358 2278 0 653 324 1136 914 1331 1624 162 594 97 1244 -181 1804
-202 406 -507 749 -894 1004 -468 308 -1056 455 -1614 406z m-1170 -2236 c33
-20 34 -25 19 -208 -4 -60 -7 -111 -5 -113 1 -2 20 13 41 32 21 19 55 43 77
52 45 21 60 15 95 -37 23 -33 24 -39 17 -152 l-7 -118 35 6 c32 6 35 4 45 -24
11 -31 11 -31 -47 -60 l-58 -30 -37 27 -37 26 8 66 c10 80 10 196 0 206 -9 10
-61 -39 -98 -92 -25 -37 -29 -51 -31 -130 -3 -85 -4 -89 -27 -92 -41 -6 -70 7
-87 39 -15 30 -15 35 5 93 18 54 21 86 21 244 l0 181 -30 -9 c-25 -7 -32 -5
-40 10 -18 34 -10 49 38 74 57 30 66 31 103 9z m3051 0 l30 -18 -7 -140 c-3
-77 -9 -151 -12 -165 -5 -24 -3 -23 33 12 55 51 113 88 139 88 22 0 65 -39 82
-75 6 -12 7 -70 3 -143 l-7 -123 -41 -42 c-41 -40 -44 -42 -117 -45 -121 -7
-159 3 -181 43 -16 30 -17 40 -6 80 7 28 12 120 12 244 l0 200 -29 -9 c-25 -7
-30 -5 -40 16 -17 39 -14 43 42 69 62 30 61 30 99 8z m-3262 -76 c41 -20 54
-55 46 -120 l-7 -57 -40 0 c-36 0 -39 2 -39 28 0 66 -7 72 -74 72 -34 0 -69
-6 -78 -12 -24 -18 -38 -113 -38 -250 0 -94 3 -120 14 -124 8 -3 61 4 117 15
128 26 127 26 135 -5 5 -21 -1 -33 -32 -65 l-38 -39 -92 0 c-84 0 -94 2 -130
29 -82 59 -79 48 -67 256 l10 184 33 38 c18 21 43 43 54 50 28 16 194 16 226
0z m2278 -7 l32 -20 0 -100 0 -100 104 0 103 0 -5 113 c-5 130 1 140 63 110
l35 -17 0 -272 0 -272 -25 -6 c-29 -7 -51 2 -83 37 l-24 25 16 84 c9 47 16 88
16 91 0 4 -47 7 -105 7 l-105 0 0 -119 c0 -110 -2 -120 -20 -126 -23 -7 -47 4
-79 39 l-25 26 19 98 c15 75 19 131 16 249 -1 84 0 157 4 163 9 15 26 12 63
-10z m-1612 -161 c23 -14 34 -28 34 -45 0 -22 4 -20 45 22 54 54 79 55 113 4
21 -30 23 -43 19 -94 -6 -65 -17 -78 -62 -74 -28 3 -30 6 -35 52 -5 46 -6 47
-21 30 -44 -50 -59 -101 -59 -199 l0 -95 -39 0 c-31 0 -44 6 -60 26 -26 33
-26 50 -3 111 13 35 17 66 14 116 -2 37 -5 67 -6 67 -1 0 -15 -4 -33 -9 -34
-10 -45 -3 -57 34 -5 17 3 25 46 47 65 33 63 33 104 7z m366 -6 c15 -13 15
-18 -4 -60 -21 -48 -29 -164 -15 -215 7 -27 10 -28 67 -28 68 0 76 8 80 80 5
97 4 100 -40 100 -33 0 -42 4 -54 29 -14 27 -14 31 14 75 35 55 52 57 110 15
l43 -31 78 32 78 32 35 -22 c31 -19 35 -25 29 -52 l-6 -31 57 47 c89 73 122
73 163 1 21 -38 23 -83 8 -228 l-3 -39 33 6 c27 5 36 3 44 -13 19 -35 12 -46
-43 -73 -52 -26 -54 -26 -82 -9 -49 30 -56 44 -45 92 6 24 11 84 11 132 0 107
-10 111 -76 30 -50 -61 -64 -103 -64 -195 l0 -68 -39 0 c-31 0 -44 6 -60 26
-26 33 -26 60 -1 124 19 49 26 122 14 153 -5 13 -11 13 -54 -1 l-49 -15 -7
-100 c-7 -99 -7 -100 -48 -142 -33 -34 -50 -44 -89 -49 -77 -12 -121 0 -168
46 l-41 40 7 122 c5 95 11 128 27 154 39 64 50 69 90 35z m1057 -39 l41 -44 0
-103 c0 -100 -1 -106 -31 -146 -37 -51 -80 -71 -154 -71 -66 0 -105 18 -138
62 -24 32 -25 37 -18 148 5 101 9 121 34 163 30 51 43 56 77 29 22 -18 22 -19
4 -53 -22 -42 -32 -205 -15 -238 10 -17 21 -21 65 -21 33 0 58 5 65 14 14 17
26 126 17 160 -4 17 -23 35 -56 54 l-50 29 30 41 c28 39 31 41 59 31 17 -6 48
-30 70 -55z m722 28 c31 -28 31 -29 20 -81 -13 -59 -15 -211 -3 -211 17 0 52
32 86 78 33 46 35 54 38 137 l3 89 30 8 c44 12 69 2 89 -35 18 -33 18 -34 -10
-98 -20 -48 -27 -78 -25 -118 1 -30 3 -56 4 -58 2 -1 18 1 35 6 27 8 34 7 42
-9 19 -35 11 -50 -44 -77 l-54 -26 -33 19 c-26 15 -35 28 -37 52 l-3 33 -51
-46 c-73 -66 -92 -68 -143 -14 l-41 44 7 85 c13 154 14 153 -21 145 -26 -6
-31 -3 -40 20 -15 39 -14 41 38 63 62 28 76 27 113 -6z"/>
<path d="M4346 2520 c-59 -52 -106 -132 -106 -180 l0 -42 63 7 c34 4 65 10 69
14 22 20 39 231 18 231 -5 0 -25 -14 -44 -30z"/>
</g>
</svg>
